<svg width="170" height="58" viewBox="0 0 170 58" fill="none" xmlns="http://www.w3.org/2000/svg">
<path fill-rule="evenodd" clip-rule="evenodd" d="M40.6309 0C40.8033 0 40.9759 0 41.1483 0C41.1483 5.00132 41.1483 10.0026 41.1483 15.0039C47.2928 16.0392 51.1515 19.5746 52.7246 25.6102C53.5634 30.9419 51.9466 35.3612 47.8742 38.868C45.8775 40.3618 43.6356 41.2456 41.1483 41.5195C41.1055 42.6438 41.1486 43.7648 41.2776 44.8825C42.9731 43.5268 44.9133 42.8369 47.0981 42.813C47.0981 43.8477 47.0981 44.8825 47.0981 45.9172C43.8647 46.1974 41.9029 47.9221 41.213 51.091C41.1267 52.212 41.1267 53.3329 41.213 54.454C45.9987 54.6264 50.7845 54.6264 55.5702 54.454C55.7599 55.5098 55.8246 56.5876 55.7642 57.6876C37.1817 57.6876 18.5993 57.6876 0.0168071 57.6876C-0.0260318 56.6062 0.0170787 55.5284 0.146151 54.454C4.92632 54.5825 9.71207 54.6256 14.5034 54.5833C14.5032 38.7472 14.5248 22.9241 14.568 7.11394C23.2662 4.72951 31.9539 2.35819 40.6309 0ZM37.7854 4.00967C38.043 7.62873 38.1291 11.2936 38.044 15.0039C31.8997 16.039 28.0409 19.5744 26.4677 25.6102C25.6049 31.1461 27.351 35.6517 31.7062 39.1267C33.6095 40.4726 35.722 41.2701 38.044 41.5195C38.0866 45.862 38.0435 50.195 37.9147 54.5186C31.1889 54.5833 24.463 54.6049 17.737 54.5833C17.6939 39.536 17.737 24.4889 17.8663 9.44213C24.5278 7.65188 31.1674 5.84105 37.7854 4.00967ZM39.2081 17.9789C45.0025 18.2762 48.5164 21.2511 49.7497 26.9036C50.1543 32.0555 48.0201 35.6986 43.3472 37.8332C42.6285 38.0883 41.8957 38.2823 41.1483 38.4153C41.1483 32.5517 41.1483 26.688 41.1483 20.8244C40.1132 20.6598 39.0784 20.6598 38.044 20.8244C38.0656 23.4979 38.044 26.171 37.9794 28.8438C36.3116 27.526 34.4145 26.793 32.2882 26.6449C32.141 27.1609 32.0764 27.6999 32.0942 28.2617C32.0963 28.7897 32.1393 29.3071 32.2235 29.8139C35.4005 30.1022 37.3191 31.8052 37.9794 34.923C38.044 36.0863 38.0655 37.2504 38.044 38.4153C33.5656 37.4939 30.7416 34.8208 29.572 30.3959C28.8131 25.2038 30.7317 21.3881 35.3278 18.9489C36.5877 18.4184 37.8812 18.095 39.2081 17.9789Z" fill="#20A582"/>
<path d="M65.5068 17.2327V33.4417H63.3906V17.2327H65.5068ZM76.2297 33.4417L71.2298 27.8139V33.4417H69.1136V16.2327H71.2298V26.3488L76.1367 20.6977H79.0901L73.0902 27.0464L79.1133 33.4417H76.2297ZM86.6399 33.6509C85.4461 33.6509 84.3609 33.3796 83.3841 32.837C82.4229 32.2944 81.6633 31.527 81.1051 30.5347C80.5625 29.527 80.2912 28.3642 80.2912 27.0464C80.2912 25.7441 80.5703 24.5969 81.1284 23.6047C81.702 22.5969 82.4772 21.8295 83.4539 21.3024C84.4306 20.7598 85.5236 20.4884 86.7329 20.4884C87.9422 20.4884 89.0352 20.7598 90.0119 21.3024C90.9886 21.8295 91.7561 22.5892 92.3142 23.5814C92.8878 24.5736 93.1746 25.7286 93.1746 27.0464C93.1746 28.3642 92.8801 29.527 92.2909 30.5347C91.7173 31.527 90.9344 32.2944 89.9421 32.837C88.9499 33.3796 87.8492 33.6509 86.6399 33.6509ZM86.6399 31.7905C87.3996 31.7905 88.1127 31.6122 88.7794 31.2557C89.446 30.8991 89.9809 30.3642 90.384 29.651C90.8026 28.9379 91.0119 28.0697 91.0119 27.0464C91.0119 26.0232 90.8103 25.155 90.4072 24.4418C90.0042 23.7287 89.477 23.2016 88.8259 22.8605C88.1747 22.5039 87.4693 22.3256 86.7097 22.3256C85.9345 22.3256 85.2213 22.5039 84.5702 22.8605C83.9345 23.2016 83.4229 23.7287 83.0353 24.4418C82.6477 25.155 82.4539 26.0232 82.4539 27.0464C82.4539 28.0852 82.64 28.9611 83.0121 29.6743C83.3996 30.3875 83.9113 30.9223 84.5469 31.2789C85.1826 31.62 85.8802 31.7905 86.6399 31.7905ZM102.166 20.4652C103.717 20.4652 104.972 20.938 105.934 21.8838C106.895 22.814 107.375 24.1628 107.375 25.9302V33.4417H105.282V26.2325C105.282 24.9612 104.965 23.9922 104.329 23.3256C103.693 22.6434 102.825 22.3024 101.724 22.3024C100.608 22.3024 99.7167 22.6512 99.05 23.3488C98.3989 24.0465 98.0733 25.062 98.0733 26.3953V33.4417H95.9571V20.6977H98.0733V22.5117C98.4919 21.8605 99.0578 21.3566 99.771 21.0001C100.5 20.6435 101.298 20.4652 102.166 20.4652ZM127.853 22.3721C127.853 23.3178 127.636 24.186 127.202 24.9767C126.768 25.7519 126.101 26.3798 125.202 26.8604C124.303 27.341 123.187 27.5813 121.853 27.5813H119.388V33.4417H115.412V17.1164H121.853C123.156 17.1164 124.256 17.3412 125.156 17.7908C126.055 18.2404 126.729 18.8606 127.179 19.6513C127.628 20.4419 127.853 21.3489 127.853 22.3721ZM121.551 24.4186C122.311 24.4186 122.877 24.2403 123.249 23.8837C123.621 23.5271 123.807 23.0233 123.807 22.3721C123.807 21.721 123.621 21.2171 123.249 20.8605C122.877 20.5039 122.311 20.3257 121.551 20.3257H119.388V24.4186H121.551ZM129.133 26.9302C129.133 25.5969 129.381 24.4263 129.877 23.4186C130.389 22.4109 131.078 21.6357 131.947 21.0931C132.815 20.5505 133.784 20.2791 134.854 20.2791C135.768 20.2791 136.567 20.4652 137.249 20.8373C137.947 21.2094 138.481 21.6977 138.854 22.3024V20.4652H142.83V33.4417H138.854V31.6045C138.466 32.2091 137.923 32.6975 137.226 33.0696C136.543 33.4417 135.745 33.6277 134.83 33.6277C133.776 33.6277 132.815 33.3564 131.947 32.8138C131.078 32.2556 130.389 31.4727 129.877 30.465C129.381 29.4417 129.133 28.2635 129.133 26.9302ZM138.854 26.9534C138.854 25.9612 138.574 25.1783 138.016 24.6046C137.474 24.031 136.807 23.7442 136.016 23.7442C135.226 23.7442 134.551 24.031 133.993 24.6046C133.451 25.1628 133.179 25.9379 133.179 26.9302C133.179 27.9224 133.451 28.7131 133.993 29.3022C134.551 29.8758 135.226 30.1627 136.016 30.1627C136.807 30.1627 137.474 29.8758 138.016 29.3022C138.574 28.7286 138.854 27.9456 138.854 26.9534ZM149.684 22.6279C150.149 21.9148 150.73 21.3566 151.428 20.9535C152.126 20.535 152.901 20.3257 153.753 20.3257V24.5349H152.66C151.668 24.5349 150.924 24.7519 150.428 25.186C149.932 25.6046 149.684 26.3488 149.684 27.4185V33.4417H145.707V20.4652H149.684V22.6279ZM163.584 33.4417L159.631 27.9999V33.4417H155.654V16.2327H159.631V25.7441L163.561 20.4652H168.468L163.073 26.9767L168.514 33.4417H163.584Z" fill="black"/>
<path d="M64.1602 47.055C63.7634 47.055 63.4076 46.9889 63.0926 46.8566C62.7777 46.718 62.5289 46.5291 62.3463 46.2898C62.1636 46.0441 62.0629 45.7638 62.044 45.4489H62.932C62.9572 45.7072 63.0769 45.9182 63.291 46.0819C63.5115 46.2457 63.7981 46.3275 64.1508 46.3275C64.4783 46.3275 64.7365 46.2551 64.9255 46.1103C65.1144 45.9654 65.2089 45.7827 65.2089 45.5623C65.2089 45.3356 65.1081 45.1687 64.9066 45.0616C64.705 44.9482 64.3932 44.838 63.9713 44.7309C63.5871 44.6301 63.2721 44.5294 63.0265 44.4286C62.7872 44.3215 62.5793 44.1672 62.403 43.9657C62.2329 43.7578 62.1479 43.487 62.1479 43.1532C62.1479 42.8887 62.2266 42.6462 62.3841 42.4257C62.5415 42.2053 62.7651 42.0321 63.0549 41.9061C63.3446 41.7739 63.6752 41.7077 64.0468 41.7077C64.62 41.7077 65.0829 41.8526 65.4356 42.1423C65.7883 42.432 65.9773 42.8288 66.0025 43.3327H65.1427C65.1239 43.0619 65.0136 42.8446 64.8121 42.6808C64.6168 42.5171 64.3523 42.4352 64.0185 42.4352C63.7099 42.4352 63.4642 42.5013 63.2816 42.6336C63.0989 42.7658 63.0076 42.9391 63.0076 43.1532C63.0076 43.3232 63.0612 43.465 63.1682 43.5783C63.2816 43.6854 63.4202 43.7736 63.5839 43.8429C63.754 43.9058 63.987 43.9783 64.283 44.0602C64.6546 44.1609 64.9569 44.2617 65.19 44.3625C65.423 44.4569 65.6214 44.6018 65.7852 44.7971C65.9552 44.9923 66.0434 45.2474 66.0497 45.5623C66.0497 45.8457 65.971 46.1008 65.8135 46.3275C65.6561 46.5543 65.4325 46.7338 65.1427 46.866C64.8593 46.992 64.5318 47.055 64.1602 47.055ZM68.1231 39.9788V46.97H67.2633V39.9788H68.1231ZM71.8462 47.055C71.3613 47.055 70.9204 46.9448 70.5236 46.7243C70.1331 46.5039 69.8245 46.1921 69.5977 45.789C69.3773 45.3796 69.2671 44.9073 69.2671 44.3719C69.2671 43.8429 69.3805 43.3768 69.6072 42.9737C69.8402 42.5643 70.1551 42.2525 70.5519 42.0384C70.9487 41.818 71.3928 41.7077 71.884 41.7077C72.3753 41.7077 72.8193 41.818 73.2161 42.0384C73.6129 42.2525 73.9247 42.5612 74.1514 42.9642C74.3845 43.3673 74.501 43.8366 74.501 44.3719C74.501 44.9073 74.3813 45.3796 74.142 45.789C73.9089 46.1921 73.5909 46.5039 73.1878 46.7243C72.7847 46.9448 72.3375 47.055 71.8462 47.055ZM71.8462 46.2992C72.1549 46.2992 72.4446 46.2268 72.7154 46.0819C72.9862 45.937 73.2035 45.7198 73.3673 45.43C73.5373 45.1403 73.6224 44.7876 73.6224 44.3719C73.6224 43.9562 73.5405 43.6035 73.3767 43.3138C73.213 43.0241 72.9988 42.8099 72.7343 42.6714C72.4698 42.5265 72.1832 42.4541 71.8746 42.4541C71.5597 42.4541 71.2699 42.5265 71.0054 42.6714C70.7472 42.8099 70.5393 43.0241 70.3819 43.3138C70.2244 43.6035 70.1457 43.9562 70.1457 44.3719C70.1457 44.7939 70.2213 45.1498 70.3724 45.4395C70.5299 45.7292 70.7377 45.9465 70.996 46.0914C71.2542 46.2299 71.5376 46.2992 71.8462 46.2992ZM77.7665 41.7077C78.2137 41.7077 78.6042 41.8054 78.938 42.0006C79.2781 42.1958 79.53 42.4415 79.6938 42.7375V41.7928H80.5629V47.0833C80.5629 47.5557 80.4622 47.9746 80.2606 48.3399C80.0591 48.7115 79.7693 49.0012 79.3914 49.209C79.0198 49.4169 78.5853 49.5208 78.0877 49.5208C77.4075 49.5208 76.8406 49.3602 76.3872 49.039C75.9337 48.7178 75.666 48.28 75.5841 47.7258H76.4344C76.5289 48.0407 76.7241 48.2926 77.0201 48.4816C77.3162 48.6768 77.672 48.7744 78.0877 48.7744C78.5601 48.7744 78.9443 48.6264 79.2403 48.3304C79.5426 48.0344 79.6938 47.6187 79.6938 47.0833V45.9969C79.5237 46.2992 79.2718 46.5511 78.938 46.7527C78.6042 46.9542 78.2137 47.055 77.7665 47.055C77.3067 47.055 76.8879 46.9416 76.51 46.7149C76.1384 46.4881 75.8455 46.1701 75.6314 45.7607C75.4172 45.3513 75.3101 44.8852 75.3101 44.3625C75.3101 43.8334 75.4172 43.3705 75.6314 42.9737C75.8455 42.5706 76.1384 42.2588 76.51 42.0384C76.8879 41.818 77.3067 41.7077 77.7665 41.7077ZM79.6938 44.3719C79.6938 43.9814 79.615 43.6413 79.4576 43.3516C79.3001 43.0619 79.086 42.8414 78.8152 42.6903C78.5506 42.5328 78.2578 42.4541 77.9365 42.4541C77.6153 42.4541 77.3225 42.5297 77.0579 42.6808C76.7934 42.832 76.5824 43.0524 76.4249 43.3421C76.2675 43.6319 76.1888 43.972 76.1888 44.3625C76.1888 44.7593 76.2675 45.1057 76.4249 45.4017C76.5824 45.6914 76.7934 45.915 77.0579 46.0725C77.3225 46.2236 77.6153 46.2992 77.9365 46.2992C78.2578 46.2992 78.5506 46.2236 78.8152 46.0725C79.086 45.915 79.3001 45.6914 79.4576 45.4017C79.615 45.1057 79.6938 44.7624 79.6938 44.3719ZM81.6946 44.3625C81.6946 43.8334 81.8016 43.3705 82.0158 42.9737C82.2299 42.5706 82.5228 42.2588 82.8944 42.0384C83.2723 41.818 83.6911 41.7077 84.1509 41.7077C84.6044 41.7077 84.998 41.8054 85.3318 42.0006C85.6656 42.1958 85.9144 42.4415 86.0782 42.7375V41.7928H86.9474V46.97H86.0782V46.0063C85.9081 46.3086 85.6531 46.5606 85.3129 46.7621C84.9791 46.9574 84.5886 47.055 84.1415 47.055C83.6817 47.055 83.266 46.9416 82.8944 46.7149C82.5228 46.4881 82.2299 46.1701 82.0158 45.7607C81.8016 45.3513 81.6946 44.8852 81.6946 44.3625ZM86.0782 44.3719C86.0782 43.9814 85.9995 43.6413 85.842 43.3516C85.6845 43.0619 85.4704 42.8414 85.1996 42.6903C84.935 42.5328 84.6422 42.4541 84.321 42.4541C83.9997 42.4541 83.7069 42.5297 83.4423 42.6808C83.1778 42.832 82.9668 43.0524 82.8094 43.3421C82.6519 43.6319 82.5732 43.972 82.5732 44.3625C82.5732 44.7593 82.6519 45.1057 82.8094 45.4017C82.9668 45.6914 83.1778 45.915 83.4423 46.0725C83.7069 46.2236 83.9997 46.2992 84.321 46.2992C84.6422 46.2992 84.935 46.2236 85.1996 46.0725C85.4704 45.915 85.6845 45.6914 85.842 45.4017C85.9995 45.1057 86.0782 44.7624 86.0782 44.3719ZM90.9227 41.6983C91.5525 41.6983 92.0627 41.8904 92.4532 42.2746C92.8437 42.6525 93.0389 43.2004 93.0389 43.9184V46.97H92.1886V44.0413C92.1886 43.5248 92.0595 43.1311 91.8013 42.8603C91.5431 42.5832 91.1904 42.4446 90.7432 42.4446C90.2897 42.4446 89.9275 42.5863 89.6567 42.8698C89.3922 43.1532 89.2599 43.5657 89.2599 44.1074V46.97H88.4002V41.7928H89.2599V42.5297C89.43 42.2651 89.6599 42.0604 89.9496 41.9156C90.2456 41.7707 90.57 41.6983 90.9227 41.6983ZM99.5317 41.6983C99.9222 41.6983 100.275 41.7833 100.59 41.9534C100.905 42.1171 101.15 42.3659 101.327 42.6997C101.509 43.0335 101.601 43.4398 101.601 43.9184V46.97H100.75V44.0413C100.75 43.5248 100.621 43.1311 100.363 42.8603C100.105 42.5832 99.7521 42.4446 99.3049 42.4446C98.8515 42.4446 98.4893 42.5863 98.2185 42.8698C97.954 43.1532 97.8217 43.5657 97.8217 44.1074V46.97H96.962V39.9788H97.8217V42.5297C97.9917 42.2651 98.2248 42.0604 98.5208 41.9156C98.8231 41.7707 99.1601 41.6983 99.5317 41.6983ZM107.729 44.183C107.729 44.3467 107.719 44.5199 107.7 44.7026H103.562C103.594 45.2127 103.767 45.6127 104.082 45.9024C104.403 46.1858 104.791 46.3275 105.244 46.3275C105.616 46.3275 105.924 46.2425 106.17 46.0725C106.422 45.8961 106.598 45.6631 106.699 45.3733H107.625C107.486 45.8709 107.209 46.2772 106.793 46.5921C106.378 46.9007 105.861 47.055 105.244 47.055C104.753 47.055 104.312 46.9448 103.921 46.7243C103.537 46.5039 103.235 46.1921 103.014 45.789C102.794 45.3796 102.684 44.9073 102.684 44.3719C102.684 43.8366 102.791 43.3673 103.005 42.9642C103.219 42.5612 103.518 42.2525 103.903 42.0384C104.293 41.818 104.74 41.7077 105.244 41.7077C105.735 41.7077 106.17 41.8148 106.548 42.0289C106.926 42.2431 107.215 42.5391 107.417 42.917C107.625 43.2886 107.729 43.7106 107.729 44.183ZM106.841 44.0035C106.841 43.676 106.768 43.3957 106.623 43.1626C106.479 42.9233 106.28 42.7438 106.028 42.6241C105.783 42.4982 105.509 42.4352 105.206 42.4352C104.772 42.4352 104.4 42.5737 104.091 42.8509C103.789 43.128 103.616 43.5122 103.572 44.0035H106.841ZM109.723 42.6336C109.874 42.3376 110.089 42.1077 110.366 41.9439C110.649 41.7802 110.992 41.6983 111.395 41.6983V42.5863H111.169C110.205 42.5863 109.723 43.1091 109.723 44.1546V46.97H108.864V41.7928H109.723V42.6336ZM117.112 44.183C117.112 44.3467 117.102 44.5199 117.083 44.7026H112.945C112.977 45.2127 113.15 45.6127 113.465 45.9024C113.786 46.1858 114.173 46.3275 114.627 46.3275C114.999 46.3275 115.307 46.2425 115.553 46.0725C115.805 45.8961 115.981 45.6631 116.082 45.3733H117.008C116.869 45.8709 116.592 46.2772 116.176 46.5921C115.761 46.9007 115.244 47.055 114.627 47.055C114.136 47.055 113.695 46.9448 113.304 46.7243C112.92 46.5039 112.618 46.1921 112.397 45.789C112.177 45.3796 112.067 44.9073 112.067 44.3719C112.067 43.8366 112.174 43.3673 112.388 42.9642C112.602 42.5612 112.901 42.2525 113.285 42.0384C113.676 41.818 114.123 41.7077 114.627 41.7077C115.118 41.7077 115.553 41.8148 115.931 42.0289C116.309 42.2431 116.598 42.5391 116.8 42.917C117.008 43.2886 117.112 43.7106 117.112 44.183ZM116.224 44.0035C116.224 43.676 116.151 43.3957 116.006 43.1626C115.861 42.9233 115.663 42.7438 115.411 42.6241C115.165 42.4982 114.891 42.4352 114.589 42.4352C114.155 42.4352 113.783 42.5737 113.474 42.8509C113.172 43.128 112.999 43.5122 112.955 44.0035H116.224Z" fill="black"/>
</svg>
