<svg width="124" height="42" viewBox="0 0 124 42" fill="none" xmlns="http://www.w3.org/2000/svg">
<path fill-rule="evenodd" clip-rule="evenodd" d="M29.5812 0C29.7067 0 29.8323 0 29.9579 0C29.9579 3.64126 29.9579 7.28248 29.9579 10.9238C34.4314 11.6775 37.2408 14.2515 38.3861 18.6457C38.9968 22.5275 37.8197 25.7451 34.8547 28.2982C33.401 29.3858 31.7687 30.0292 29.9579 30.2287C29.9267 31.0472 29.958 31.8634 30.052 32.6771C31.2864 31.6901 32.699 31.1878 34.2897 31.1704C34.2897 31.9238 34.2897 32.6771 34.2897 33.4305C31.9355 33.6345 30.5072 34.8901 30.0049 37.1973C29.9421 38.0135 29.9421 38.8296 30.0049 39.6457C33.4892 39.7713 36.9735 39.7713 40.4579 39.6457C40.596 40.4145 40.6431 41.1992 40.5991 42C27.0699 42 13.5408 42 0.0116589 42C-0.0195304 41.2127 0.0118566 40.428 0.105829 39.6457C3.58608 39.7393 7.07039 39.7707 10.5587 39.7399C10.5587 28.2103 10.5744 16.6901 10.6058 5.17937C16.9386 3.44337 23.2637 1.71691 29.5812 0ZM27.5094 2.91928C27.697 5.55417 27.7597 8.22239 27.6978 10.9238C23.2243 11.6773 20.4149 14.2514 19.2695 18.6457C18.6413 22.6762 19.9126 25.9566 23.0834 28.4865C24.4691 29.4665 26.0072 30.0471 27.6978 30.2287C27.7287 33.3903 27.6974 36.545 27.6036 39.6928C22.7068 39.7399 17.81 39.7556 12.913 39.7399C12.8816 28.7846 12.913 17.8294 13.0072 6.87444C17.8571 5.57103 22.6912 4.25263 27.5094 2.91928ZM28.5453 13.0897C32.7639 13.3062 35.3223 15.4721 36.2202 19.5874C36.5147 23.3383 34.9609 25.9907 31.5587 27.5448C31.0355 27.7305 30.502 27.8718 29.9579 27.9686C29.9579 23.6996 29.9579 19.4305 29.9579 15.1614C29.2042 15.0416 28.4508 15.0416 27.6978 15.1614C27.7135 17.1078 27.6978 19.0541 27.6507 21C26.4364 20.0406 25.0552 19.5069 23.5072 19.3991C23.4 19.7747 23.3529 20.1672 23.3659 20.5762C23.3674 20.9606 23.3988 21.3373 23.4601 21.7063C25.7731 21.9162 27.1699 23.1561 27.6507 25.426C27.6978 26.273 27.7134 27.1205 27.6978 27.9686C24.4372 27.2978 22.3812 25.3516 21.5296 22.13C20.9771 18.3499 22.3739 15.5718 25.7202 13.796C26.6375 13.4097 27.5792 13.1743 28.5453 13.0897Z" fill="#20A582"/>
<path d="M47.6923 12.8974V24.6985H46.1515V12.8974H47.6923ZM55.4992 24.6985L51.859 20.6011V24.6985H50.3182V12.1693H51.859V19.5344L55.4315 15.4201H57.5817L53.2135 20.0424L57.5987 24.6985H55.4992ZM63.0784 24.8508C62.2093 24.8508 61.4192 24.6533 60.7081 24.2582C60.0082 23.8632 59.4551 23.3044 59.0488 22.582C58.6537 21.8484 58.4562 21.0018 58.4562 20.0424C58.4562 19.0942 58.6594 18.2589 59.0657 17.5365C59.4834 16.8028 60.0477 16.2441 60.7589 15.8603C61.47 15.4653 62.2657 15.2677 63.1462 15.2677C64.0266 15.2677 64.8224 15.4653 65.5335 15.8603C66.2446 16.2441 66.8033 16.7972 67.2097 17.5196C67.6273 18.242 67.8361 19.0829 67.8361 20.0424C67.8361 21.0018 67.6217 21.8484 67.1927 22.582C66.7751 23.3044 66.2051 23.8632 65.4827 24.2582C64.7603 24.6533 63.9589 24.8508 63.0784 24.8508ZM63.0784 23.4963C63.6315 23.4963 64.1508 23.3665 64.6361 23.1069C65.1215 22.8473 65.5109 22.4579 65.8044 21.9387C66.1091 21.4194 66.2615 20.7873 66.2615 20.0424C66.2615 19.2974 66.1148 18.6653 65.8213 18.1461C65.5278 17.6268 65.1441 17.2431 64.67 16.9947C64.1959 16.7351 63.6823 16.6053 63.1292 16.6053C62.5649 16.6053 62.0456 16.7351 61.5716 16.9947C61.1088 17.2431 60.7363 17.6268 60.4541 18.1461C60.1719 18.6653 60.0308 19.2974 60.0308 20.0424C60.0308 20.7986 60.1663 21.4364 60.4372 21.9556C60.7193 22.4748 61.0918 22.8642 61.5546 23.1238C62.0174 23.3722 62.5254 23.4963 63.0784 23.4963ZM74.3826 15.2508C75.5113 15.2508 76.4256 15.5951 77.1254 16.2836C77.8253 16.9609 78.1752 17.9429 78.1752 19.2297V24.6985H76.6514V19.4498C76.6514 18.5242 76.42 17.8187 75.9572 17.3334C75.4944 16.8367 74.8623 16.5884 74.0609 16.5884C73.2482 16.5884 72.5991 16.8424 72.1138 17.3503C71.6397 17.8582 71.4027 18.5976 71.4027 19.5683V24.6985H69.8619V15.4201H71.4027V16.7408C71.7074 16.2667 72.1194 15.8998 72.6386 15.6402C73.1692 15.3806 73.7505 15.2508 74.3826 15.2508ZM93.0842 16.6392C93.0842 17.3277 92.9262 17.9598 92.6101 18.5355C92.2941 19.0999 91.8087 19.557 91.154 19.9069C90.4994 20.2568 89.6867 20.4318 88.7159 20.4318H86.9212V24.6985H84.026V12.8127H88.7159C89.6641 12.8127 90.4655 12.9764 91.1202 13.3037C91.7748 13.6311 92.2659 14.0826 92.5932 14.6582C92.9205 15.2339 93.0842 15.8942 93.0842 16.6392ZM88.4958 18.1291C89.0489 18.1291 89.4609 17.9993 89.7318 17.7397C90.0027 17.4801 90.1382 17.1133 90.1382 16.6392C90.1382 16.1651 90.0027 15.7983 89.7318 15.5386C89.4609 15.279 89.0489 15.1492 88.4958 15.1492H86.9212V18.1291H88.4958ZM94.0158 19.9577C94.0158 18.987 94.1964 18.1348 94.5576 17.4011C94.9301 16.6674 95.4324 16.103 96.0645 15.708C96.6966 15.3129 97.4021 15.1154 98.1809 15.1154C98.8469 15.1154 99.4282 15.2508 99.9248 15.5217C100.433 15.7926 100.822 16.1482 101.093 16.5884V15.2508H103.988V24.6985H101.093V23.3609C100.811 23.8011 100.416 24.1567 99.9079 24.4276C99.4112 24.6985 98.8299 24.8339 98.164 24.8339C97.3964 24.8339 96.6966 24.6364 96.0645 24.2413C95.4324 23.835 94.9301 23.2649 94.5576 22.5313C94.1964 21.7863 94.0158 20.9284 94.0158 19.9577ZM101.093 19.9746C101.093 19.2522 100.89 18.6822 100.484 18.2646C100.088 17.8469 99.6031 17.6381 99.0275 17.6381C98.4518 17.6381 97.9608 17.8469 97.5544 18.2646C97.1594 18.6709 96.9619 19.2353 96.9619 19.9577C96.9619 20.6801 97.1594 21.2558 97.5544 21.6847C97.9608 22.1023 98.4518 22.3111 99.0275 22.3111C99.6031 22.3111 100.088 22.1023 100.484 21.6847C100.89 21.2671 101.093 20.697 101.093 19.9746ZM108.978 16.8254C109.317 16.3062 109.74 15.8998 110.248 15.6064C110.756 15.3016 111.32 15.1492 111.941 15.1492V18.2138H111.145C110.423 18.2138 109.881 18.3718 109.52 18.6879C109.159 18.9926 108.978 19.5344 108.978 20.3133V24.6985H106.083V15.2508H108.978V16.8254ZM119.099 24.6985L116.22 20.7365V24.6985H113.325V12.1693H116.22V19.0942L119.082 15.2508H122.654L118.726 19.9916L122.688 24.6985H119.099Z" fill="black"/>
<path d="M46.7119 34.1625C46.423 34.1625 46.1639 34.1143 45.9346 34.018C45.7053 33.9172 45.5242 33.7796 45.3912 33.6053C45.2582 33.4265 45.1849 33.2225 45.1711 32.9932H45.8177C45.836 33.1812 45.9232 33.3348 46.0791 33.454C46.2396 33.5732 46.4482 33.6329 46.705 33.6329C46.9434 33.6329 47.1314 33.5801 47.269 33.4747C47.4066 33.3692 47.4754 33.2362 47.4754 33.0757C47.4754 32.9106 47.402 32.7891 47.2553 32.7112C47.1085 32.6286 46.8815 32.5484 46.5743 32.4704C46.2946 32.3971 46.0653 32.3237 45.8865 32.2503C45.7122 32.1724 45.5609 32.06 45.4325 31.9133C45.3087 31.762 45.2468 31.5648 45.2468 31.3217C45.2468 31.1292 45.3041 30.9526 45.4187 30.7921C45.5334 30.6316 45.6962 30.5055 45.9071 30.4138C46.118 30.3175 46.3588 30.2694 46.6293 30.2694C47.0466 30.2694 47.3836 30.3748 47.6404 30.5858C47.8972 30.7967 48.0348 31.0856 48.0531 31.4524H47.4272C47.4135 31.2553 47.3332 31.0971 47.1865 30.9778C47.0443 30.8586 46.8517 30.799 46.6087 30.799C46.384 30.799 46.2052 30.8471 46.0722 30.9434C45.9392 31.0397 45.8727 31.1658 45.8727 31.3217C45.8727 31.4456 45.9117 31.5487 45.9896 31.6313C46.0722 31.7092 46.1731 31.7734 46.2923 31.8239C46.4161 31.8697 46.5858 31.9225 46.8013 31.9821C47.0718 32.0554 47.2919 32.1288 47.4616 32.2022C47.6313 32.271 47.7757 32.3764 47.8949 32.5186C48.0187 32.6607 48.0829 32.8464 48.0875 33.0757C48.0875 33.2821 48.0302 33.4678 47.9156 33.6329C47.8009 33.7979 47.6381 33.9286 47.4272 34.0249C47.2209 34.1166 46.9824 34.1625 46.7119 34.1625ZM49.5971 29.0106V34.1006H48.9711V29.0106H49.5971ZM52.3078 34.1625C51.9547 34.1625 51.6337 34.0822 51.3448 33.9217C51.0605 33.7613 50.8358 33.5343 50.6707 33.2408C50.5102 32.9427 50.43 32.5988 50.43 32.209C50.43 31.8239 50.5125 31.4845 50.6776 31.1911C50.8473 30.893 51.0765 30.666 51.3654 30.5101C51.6543 30.3496 51.9776 30.2694 52.3353 30.2694C52.6929 30.2694 53.0162 30.3496 53.3051 30.5101C53.594 30.666 53.821 30.8907 53.9861 31.1842C54.1557 31.4777 54.2406 31.8193 54.2406 32.209C54.2406 32.5988 54.1534 32.9427 53.9792 33.2408C53.8095 33.5343 53.578 33.7613 53.2845 33.9217C52.991 34.0822 52.6654 34.1625 52.3078 34.1625ZM52.3078 33.6122C52.5324 33.6122 52.7434 33.5595 52.9406 33.454C53.1377 33.3486 53.2959 33.1904 53.4152 32.9794C53.539 32.7685 53.6009 32.5117 53.6009 32.209C53.6009 31.9064 53.5413 31.6496 53.422 31.4387C53.3028 31.2277 53.1469 31.0718 52.9543 30.9709C52.7617 30.8655 52.5531 30.8127 52.3284 30.8127C52.0991 30.8127 51.8882 30.8655 51.6956 30.9709C51.5076 31.0718 51.3563 31.2277 51.2416 31.4387C51.127 31.6496 51.0697 31.9064 51.0697 32.209C51.0697 32.5163 51.1247 32.7754 51.2347 32.9863C51.3494 33.1972 51.5007 33.3554 51.6887 33.4609C51.8767 33.5618 52.0831 33.6122 52.3078 33.6122ZM56.618 30.2694C56.9436 30.2694 57.2279 30.3404 57.471 30.4826C57.7186 30.6247 57.902 30.8036 58.0212 31.0191V30.3313H58.654V34.1831C58.654 34.527 58.5807 34.832 58.4339 35.0979C58.2872 35.3685 58.0763 35.5794 57.8011 35.7307C57.5306 35.8821 57.2142 35.9577 56.8519 35.9577C56.3567 35.9577 55.944 35.8408 55.6138 35.6069C55.2837 35.3731 55.0888 35.0544 55.0292 34.6509H55.6482C55.717 34.8801 55.8591 35.0636 56.0747 35.2011C56.2902 35.3433 56.5493 35.4143 56.8519 35.4143C57.1958 35.4143 57.4755 35.3066 57.6911 35.0911C57.9112 34.8755 58.0212 34.5729 58.0212 34.1831V33.3921C57.8974 33.6122 57.714 33.7956 57.471 33.9424C57.2279 34.0891 56.9436 34.1625 56.618 34.1625C56.2833 34.1625 55.9784 34.08 55.7032 33.9149C55.4327 33.7498 55.2195 33.5182 55.0635 33.2202C54.9076 32.9221 54.8297 32.5828 54.8297 32.2022C54.8297 31.817 54.9076 31.4799 55.0635 31.1911C55.2195 30.8976 55.4327 30.6706 55.7032 30.5101C55.9784 30.3496 56.2833 30.2694 56.618 30.2694ZM58.0212 32.209C58.0212 31.9247 57.9639 31.6771 57.8493 31.4662C57.7346 31.2553 57.5787 31.0948 57.3815 30.9847C57.1889 30.8701 56.9757 30.8127 56.7419 30.8127C56.508 30.8127 56.2948 30.8678 56.1022 30.9778C55.9096 31.0879 55.756 31.2484 55.6413 31.4593C55.5267 31.6702 55.4694 31.9179 55.4694 32.2022C55.4694 32.4911 55.5267 32.7433 55.6413 32.9588C55.756 33.1697 55.9096 33.3325 56.1022 33.4471C56.2948 33.5572 56.508 33.6122 56.7419 33.6122C56.9757 33.6122 57.1889 33.5572 57.3815 33.4471C57.5787 33.3325 57.7346 33.1697 57.8493 32.9588C57.9639 32.7433 58.0212 32.4934 58.0212 32.209ZM59.4779 32.2022C59.4779 31.817 59.5559 31.4799 59.7118 31.1911C59.8677 30.8976 60.0809 30.6706 60.3515 30.5101C60.6266 30.3496 60.9315 30.2694 61.2663 30.2694C61.5964 30.2694 61.883 30.3404 62.1261 30.4826C62.3691 30.6247 62.5502 30.8036 62.6695 31.0191V30.3313H63.3023V34.1006H62.6695V33.399C62.5457 33.6191 62.3599 33.8025 62.1123 33.9493C61.8693 34.0914 61.585 34.1625 61.2594 34.1625C60.9247 34.1625 60.622 34.08 60.3515 33.9149C60.0809 33.7498 59.8677 33.5182 59.7118 33.2202C59.5559 32.9221 59.4779 32.5828 59.4779 32.2022ZM62.6695 32.209C62.6695 31.9247 62.6121 31.6771 62.4975 31.4662C62.3829 31.2553 62.227 31.0948 62.0298 30.9847C61.8372 30.8701 61.624 30.8127 61.3901 30.8127C61.1562 30.8127 60.943 30.8678 60.7504 30.9778C60.5578 31.0879 60.4042 31.2484 60.2896 31.4593C60.1749 31.6702 60.1176 31.9179 60.1176 32.2022C60.1176 32.4911 60.1749 32.7433 60.2896 32.9588C60.4042 33.1697 60.5578 33.3325 60.7504 33.4471C60.943 33.5572 61.1562 33.6122 61.3901 33.6122C61.624 33.6122 61.8372 33.5572 62.0298 33.4471C62.227 33.3325 62.3829 33.1697 62.4975 32.9588C62.6121 32.7433 62.6695 32.4934 62.6695 32.209ZM66.1965 30.2625C66.6551 30.2625 67.0265 30.4023 67.3108 30.6821C67.5951 30.9572 67.7373 31.3561 67.7373 31.8789V34.1006H67.1182V31.9683C67.1182 31.5923 67.0242 31.3057 66.8362 31.1085C66.6482 30.9068 66.3914 30.8059 66.0659 30.8059C65.7357 30.8059 65.472 30.909 65.2748 31.1154C65.0823 31.3217 64.986 31.6221 64.986 32.0165V34.1006H64.36V30.3313H64.986V30.8678C65.1098 30.6752 65.2771 30.5262 65.4881 30.4207C65.7036 30.3152 65.9398 30.2625 66.1965 30.2625ZM72.4644 30.2625C72.7487 30.2625 73.0055 30.3244 73.2348 30.4482C73.4641 30.5674 73.6429 30.7485 73.7713 30.9916C73.9043 31.2346 73.9708 31.5304 73.9708 31.8789V34.1006H73.3517V31.9683C73.3517 31.5923 73.2577 31.3057 73.0697 31.1085C72.8817 30.9068 72.6249 30.8059 72.2993 30.8059C71.9692 30.8059 71.7055 30.909 71.5083 31.1154C71.3157 31.3217 71.2194 31.6221 71.2194 32.0165V34.1006H70.5935V29.0106H71.2194V30.8678C71.3432 30.6752 71.5129 30.5262 71.7284 30.4207C71.9485 30.3152 72.1939 30.2625 72.4644 30.2625ZM78.4324 32.0715C78.4324 32.1907 78.4255 32.3168 78.4117 32.4498H75.399C75.422 32.8212 75.5481 33.1124 75.7773 33.3233C76.0112 33.5297 76.2932 33.6329 76.6234 33.6329C76.8939 33.6329 77.1186 33.571 77.2975 33.4471C77.4809 33.3187 77.6093 33.1491 77.6826 32.9381H78.3567C78.2558 33.3004 78.0541 33.5962 77.7514 33.8255C77.4488 34.0501 77.0728 34.1625 76.6234 34.1625C76.2657 34.1625 75.9447 34.0822 75.6604 33.9217C75.3807 33.7613 75.1606 33.5343 75.0001 33.2408C74.8396 32.9427 74.7594 32.5988 74.7594 32.209C74.7594 31.8193 74.8373 31.4777 74.9932 31.1842C75.1491 30.8907 75.3669 30.666 75.6467 30.5101C75.931 30.3496 76.2565 30.2694 76.6234 30.2694C76.9811 30.2694 77.2975 30.3473 77.5726 30.5032C77.8477 30.6591 78.0587 30.8747 78.2054 31.1498C78.3567 31.4203 78.4324 31.7276 78.4324 32.0715ZM77.7858 31.9408C77.7858 31.7023 77.7331 31.4983 77.6276 31.3286C77.5221 31.1544 77.3777 31.0237 77.1943 30.9366C77.0154 30.8448 76.816 30.799 76.5959 30.799C76.2795 30.799 76.0089 30.8999 75.7842 31.1016C75.5641 31.3034 75.438 31.5831 75.4059 31.9408H77.7858ZM79.8845 30.9434C79.9946 30.7279 80.1505 30.5605 80.3522 30.4413C80.5586 30.3221 80.8085 30.2625 81.102 30.2625V30.909H80.9369C80.2353 30.909 79.8845 31.2896 79.8845 32.0508V34.1006H79.2586V30.3313H79.8845V30.9434ZM85.2637 32.0715C85.2637 32.1907 85.2568 32.3168 85.243 32.4498H82.2303C82.2533 32.8212 82.3794 33.1124 82.6087 33.3233C82.8425 33.5297 83.1245 33.6329 83.4547 33.6329C83.7252 33.6329 83.9499 33.571 84.1288 33.4471C84.3122 33.3187 84.4406 33.1491 84.5139 32.9381H85.188C85.0871 33.3004 84.8854 33.5962 84.5827 33.8255C84.2801 34.0501 83.9041 34.1625 83.4547 34.1625C83.097 34.1625 82.776 34.0822 82.4917 33.9217C82.212 33.7613 81.9919 33.5343 81.8314 33.2408C81.6709 32.9427 81.5907 32.5988 81.5907 32.209C81.5907 31.8193 81.6686 31.4777 81.8245 31.1842C81.9804 30.8907 82.1982 30.666 82.478 30.5101C82.7623 30.3496 83.0878 30.2694 83.4547 30.2694C83.8124 30.2694 84.1288 30.3473 84.4039 30.5032C84.679 30.6591 84.89 30.8747 85.0367 31.1498C85.188 31.4203 85.2637 31.7276 85.2637 32.0715ZM84.6171 31.9408C84.6171 31.7023 84.5644 31.4983 84.4589 31.3286C84.3535 31.1544 84.209 31.0237 84.0256 30.9366C83.8467 30.8448 83.6473 30.799 83.4272 30.799C83.1108 30.799 82.8402 30.8999 82.6155 31.1016C82.3954 31.3034 82.2693 31.5831 82.2372 31.9408H84.6171Z" fill="black"/>
</svg>
