<svg width="460" height="152" viewBox="0 0 460 152" fill="none" xmlns="http://www.w3.org/2000/svg">
<mask id="mask0_327_240" style="mask-type:luminance" maskUnits="userSpaceOnUse" x="0" y="0" width="143" height="152">
<path d="M65.7951 4.8285V152H76.7124V4.8285L71.2536 5.25051e-06L65.7951 4.8285ZM88.6755 152H142.508V61.4197L111.557 34.0475V48.5698L131.589 66.2839V141.08H99.5946V23.8335L88.6755 14.1772V152ZM42.9129 23.8335V141.08H10.9191V66.2839L30.9502 48.5698V34.0475L0 61.4197V152H53.832V14.1772L42.9129 23.8335ZM111.557 132.16H122.476V70.1363L111.557 60.4811V132.16ZM20.0311 70.1363V132.16H30.9502V60.4811L20.0311 70.1363Z" fill="white"/>
</mask>
<g mask="url(#mask0_327_240)">
<rect width="289.577" height="409.427" rx="6" transform="matrix(1 0 0 -1 -45.6028 255.418)" fill="#20A582"/>
</g>
<path d="M171.014 36.1701H178.697V91H171.014V36.1701ZM188.625 36.1701H196.227V91H188.625V36.1701ZM209.894 36.1701H218.062L206.983 63.2616L218.79 91H210.298L198.896 63.4233L209.894 36.1701ZM247.923 91L244.93 76.4434H231.344L228.352 91H220.912L232.881 36.1701H243.556L255.363 91H247.923ZM232.638 69.8929H243.556L238.056 43.2867L232.638 69.8929ZM285.133 36.1701H292.654V91H284.567C276.102 69.3808 270.576 55.0398 267.988 47.9772C267.988 48.5702 268.096 49.8102 268.312 51.6972C268.743 56.3876 268.959 61.5903 268.959 67.3051V91H261.519V36.1701H269.687C277.181 55.1476 281.736 66.9007 283.354 71.4295C284.971 75.9582 285.888 78.5191 286.103 79.1121C286.103 78.6269 285.942 76.2547 285.618 71.9955C285.349 67.6825 285.187 63.5312 285.133 59.5416V36.1701ZM338.367 49.1093C338.367 44.958 336.21 42.8823 331.897 42.8823H325.508V66.4155H331.897C336.21 66.4155 338.367 64.3129 338.367 60.1077V49.1093ZM317.907 36.1701H332.625C336.938 36.1701 340.227 37.2484 342.491 39.4049C344.809 41.5615 345.969 44.5806 345.969 48.4624V60.7546C345.969 64.6364 344.809 67.6555 342.491 69.8121C340.227 71.9686 336.938 73.0469 332.625 73.0469H325.508V91H317.907V36.1701ZM377.204 91L374.212 76.4434H360.626L357.633 91H350.193L362.162 36.1701H372.837L384.644 91H377.204ZM361.92 69.8929H372.837L367.338 43.2867L361.92 69.8929ZM398.402 69.6503V91H390.8V36.1701H405.519C409.832 36.1701 413.12 37.2484 415.385 39.4049C417.703 41.5615 418.862 44.5537 418.862 48.3815V57.1155C418.862 63.0998 416.571 66.9547 411.988 68.6799L420.722 91H412.312L404.467 69.6503H398.402ZM398.402 42.8015V63.2616H404.872C407.136 63.2616 408.753 62.7494 409.724 61.7251C410.748 60.7007 411.26 59.1372 411.26 57.0346V48.8667C411.26 44.8232 409.131 42.8015 404.872 42.8015H398.402ZM428.313 36.1701H435.915V91H428.313V36.1701ZM449.582 36.1701H457.75L446.671 63.2616L458.478 91H449.986L438.584 63.4233L449.582 36.1701Z" fill="black"/>
<path d="M173.555 128.251C172.385 128.251 171.334 128.056 170.405 127.665C169.476 127.257 168.742 126.699 168.203 125.993C167.664 125.268 167.366 124.441 167.31 123.511H169.931C170.005 124.273 170.359 124.896 170.991 125.379C171.641 125.863 172.487 126.104 173.528 126.104C174.494 126.104 175.256 125.89 175.814 125.463C176.371 125.035 176.65 124.496 176.65 123.846C176.65 123.177 176.353 122.684 175.758 122.368C175.163 122.034 174.243 121.708 172.998 121.392C171.864 121.095 170.935 120.798 170.21 120.5C169.504 120.184 168.89 119.729 168.37 119.134C167.868 118.521 167.617 117.722 167.617 116.736C167.617 115.956 167.849 115.24 168.314 114.59C168.779 113.939 169.439 113.428 170.294 113.056C171.149 112.666 172.124 112.471 173.221 112.471C174.912 112.471 176.278 112.898 177.319 113.753C178.36 114.608 178.918 115.779 178.992 117.266H176.455C176.399 116.467 176.074 115.826 175.479 115.342C174.903 114.859 174.122 114.618 173.137 114.618C172.227 114.618 171.502 114.813 170.963 115.203C170.424 115.593 170.154 116.105 170.154 116.736C170.154 117.238 170.312 117.657 170.628 117.991C170.963 118.307 171.372 118.567 171.855 118.772C172.357 118.958 173.044 119.171 173.918 119.413C175.015 119.71 175.907 120.008 176.594 120.305C177.282 120.584 177.868 121.011 178.351 121.588C178.853 122.164 179.113 122.917 179.131 123.846C179.131 124.682 178.899 125.435 178.434 126.104C177.97 126.773 177.31 127.303 176.455 127.693C175.619 128.065 174.652 128.251 173.555 128.251ZM185.25 107.369V128H182.713V107.369H185.25ZM196.237 128.251C194.806 128.251 193.505 127.926 192.334 127.275C191.182 126.625 190.271 125.705 189.602 124.515C188.951 123.307 188.626 121.913 188.626 120.333C188.626 118.772 188.961 117.396 189.63 116.207C190.318 114.999 191.247 114.079 192.418 113.447C193.589 112.796 194.899 112.471 196.349 112.471C197.799 112.471 199.109 112.796 200.28 113.447C201.451 114.079 202.371 114.989 203.04 116.179C203.728 117.368 204.072 118.753 204.072 120.333C204.072 121.913 203.719 123.307 203.012 124.515C202.325 125.705 201.386 126.625 200.196 127.275C199.007 127.926 197.687 128.251 196.237 128.251ZM196.237 126.021C197.148 126.021 198.003 125.807 198.802 125.379C199.602 124.952 200.243 124.311 200.726 123.456C201.228 122.601 201.479 121.56 201.479 120.333C201.479 119.106 201.237 118.065 200.754 117.21C200.271 116.355 199.639 115.724 198.858 115.315C198.077 114.887 197.232 114.673 196.321 114.673C195.392 114.673 194.537 114.887 193.756 115.315C192.994 115.724 192.381 116.355 191.916 117.21C191.451 118.065 191.219 119.106 191.219 120.333C191.219 121.578 191.442 122.628 191.888 123.483C192.353 124.338 192.966 124.98 193.728 125.407C194.49 125.816 195.327 126.021 196.237 126.021ZM213.708 112.471C215.028 112.471 216.18 112.759 217.165 113.335C218.169 113.911 218.913 114.636 219.396 115.51V112.722H221.961V128.335C221.961 129.729 221.663 130.965 221.069 132.043C220.474 133.139 219.619 133.994 218.504 134.608C217.407 135.221 216.125 135.528 214.656 135.528C212.649 135.528 210.976 135.054 209.638 134.106C208.3 133.158 207.51 131.866 207.268 130.23H209.777C210.056 131.16 210.632 131.903 211.506 132.461C212.379 133.037 213.43 133.325 214.656 133.325C216.05 133.325 217.184 132.888 218.058 132.015C218.95 131.141 219.396 129.914 219.396 128.335V125.128C218.894 126.021 218.151 126.764 217.165 127.359C216.18 127.954 215.028 128.251 213.708 128.251C212.352 128.251 211.116 127.916 210 127.247C208.904 126.578 208.039 125.639 207.407 124.431C206.776 123.223 206.46 121.848 206.46 120.305C206.46 118.744 206.776 117.378 207.407 116.207C208.039 115.017 208.904 114.097 210 113.447C211.116 112.796 212.352 112.471 213.708 112.471ZM219.396 120.333C219.396 119.181 219.164 118.177 218.699 117.322C218.234 116.467 217.602 115.816 216.803 115.37C216.022 114.906 215.158 114.673 214.21 114.673C213.262 114.673 212.398 114.896 211.617 115.342C210.837 115.789 210.214 116.439 209.749 117.294C209.285 118.149 209.052 119.153 209.052 120.305C209.052 121.476 209.285 122.498 209.749 123.372C210.214 124.227 210.837 124.887 211.617 125.351C212.398 125.797 213.262 126.021 214.21 126.021C215.158 126.021 216.022 125.797 216.803 125.351C217.602 124.887 218.234 124.227 218.699 123.372C219.164 122.498 219.396 121.485 219.396 120.333ZM225.3 120.305C225.3 118.744 225.616 117.378 226.248 116.207C226.88 115.017 227.744 114.097 228.841 113.447C229.956 112.796 231.192 112.471 232.549 112.471C233.887 112.471 235.049 112.759 236.034 113.335C237.019 113.911 237.753 114.636 238.237 115.51V112.722H240.802V128H238.237V125.156C237.735 126.048 236.982 126.792 235.978 127.387C234.993 127.963 233.841 128.251 232.521 128.251C231.164 128.251 229.938 127.916 228.841 127.247C227.744 126.578 226.88 125.639 226.248 124.431C225.616 123.223 225.3 121.848 225.3 120.305ZM238.237 120.333C238.237 119.181 238.004 118.177 237.54 117.322C237.075 116.467 236.443 115.816 235.644 115.37C234.863 114.906 233.999 114.673 233.051 114.673C232.103 114.673 231.239 114.896 230.458 115.342C229.677 115.789 229.055 116.439 228.59 117.294C228.125 118.149 227.893 119.153 227.893 120.305C227.893 121.476 228.125 122.498 228.59 123.372C229.055 124.227 229.677 124.887 230.458 125.351C231.239 125.797 232.103 126.021 233.051 126.021C233.999 126.021 234.863 125.797 235.644 125.351C236.443 124.887 237.075 124.227 237.54 123.372C238.004 122.498 238.237 121.485 238.237 120.333ZM252.533 112.443C254.392 112.443 255.897 113.01 257.05 114.144C258.202 115.259 258.778 116.876 258.778 118.995V128H256.269V119.357C256.269 117.833 255.888 116.671 255.126 115.872C254.364 115.054 253.323 114.645 252.003 114.645C250.665 114.645 249.596 115.064 248.797 115.9C248.016 116.736 247.626 117.954 247.626 119.552V128H245.089V112.722H247.626V114.896C248.128 114.116 248.806 113.512 249.661 113.084C250.535 112.657 251.492 112.443 252.533 112.443ZM277.939 112.443C279.091 112.443 280.132 112.694 281.061 113.196C281.991 113.679 282.715 114.413 283.236 115.398C283.775 116.383 284.044 117.582 284.044 118.995V128H281.535V119.357C281.535 117.833 281.154 116.671 280.392 115.872C279.63 115.054 278.589 114.645 277.27 114.645C275.931 114.645 274.863 115.064 274.063 115.9C273.283 116.736 272.892 117.954 272.892 119.552V128H270.355V107.369H272.892V114.896C273.394 114.116 274.082 113.512 274.955 113.084C275.848 112.657 276.842 112.443 277.939 112.443ZM302.129 119.775C302.129 120.259 302.101 120.77 302.045 121.309H289.834C289.927 122.814 290.438 123.995 291.367 124.85C292.315 125.686 293.458 126.104 294.796 126.104C295.893 126.104 296.804 125.853 297.528 125.351C298.272 124.831 298.792 124.143 299.09 123.288H301.822C301.413 124.757 300.595 125.955 299.369 126.885C298.142 127.796 296.618 128.251 294.796 128.251C293.346 128.251 292.045 127.926 290.893 127.275C289.759 126.625 288.867 125.705 288.217 124.515C287.566 123.307 287.241 121.913 287.241 120.333C287.241 118.753 287.557 117.368 288.189 116.179C288.821 114.989 289.703 114.079 290.837 113.447C291.99 112.796 293.309 112.471 294.796 112.471C296.246 112.471 297.528 112.787 298.644 113.419C299.759 114.051 300.614 114.924 301.209 116.039C301.822 117.136 302.129 118.381 302.129 119.775ZM299.508 119.246C299.508 118.279 299.294 117.452 298.867 116.764C298.439 116.058 297.854 115.528 297.11 115.175C296.385 114.803 295.577 114.618 294.685 114.618C293.402 114.618 292.306 115.027 291.395 115.844C290.503 116.662 289.992 117.796 289.861 119.246H299.508ZM308.015 115.203C308.461 114.33 309.093 113.651 309.91 113.168C310.747 112.685 311.76 112.443 312.949 112.443V115.064H312.28C309.437 115.064 308.015 116.606 308.015 119.692V128H305.478V112.722H308.015V115.203ZM329.818 119.775C329.818 120.259 329.79 120.77 329.734 121.309H317.523C317.616 122.814 318.127 123.995 319.056 124.85C320.004 125.686 321.147 126.104 322.486 126.104C323.582 126.104 324.493 125.853 325.218 125.351C325.961 124.831 326.482 124.143 326.779 123.288H329.511C329.102 124.757 328.285 125.955 327.058 126.885C325.831 127.796 324.307 128.251 322.486 128.251C321.036 128.251 319.735 127.926 318.582 127.275C317.449 126.625 316.556 125.705 315.906 124.515C315.255 123.307 314.93 121.913 314.93 120.333C314.93 118.753 315.246 117.368 315.878 116.179C316.51 114.989 317.393 114.079 318.527 113.447C319.679 112.796 320.999 112.471 322.486 112.471C323.935 112.471 325.218 112.787 326.333 113.419C327.448 114.051 328.303 114.924 328.898 116.039C329.511 117.136 329.818 118.381 329.818 119.775ZM327.197 119.246C327.197 118.279 326.984 117.452 326.556 116.764C326.129 116.058 325.543 115.528 324.8 115.175C324.075 114.803 323.266 114.618 322.374 114.618C321.092 114.618 319.995 115.027 319.084 115.844C318.192 116.662 317.681 117.796 317.551 119.246H327.197Z" fill="black"/>
</svg>
