<svg width="145" height="189" viewBox="0 0 145 189" fill="none" xmlns="http://www.w3.org/2000/svg">
<mask id="mask0_327_240" style="mask-type:luminance" maskUnits="userSpaceOnUse" x="2" y="0" width="143" height="152">
<path d="M67.7951 4.8285V152H78.7124V4.8285L73.2536 5.25051e-06L67.7951 4.8285ZM90.6755 152H144.508V61.4197L113.557 34.0475V48.5698L133.589 66.2839V141.08H101.595V23.8335L90.6755 14.1772V152ZM44.9129 23.8335V141.08H12.9191V66.2839L32.9502 48.5698V34.0475L2 61.4197V152H55.832V14.1772L44.9129 23.8335ZM113.557 132.16H124.476V70.1363L113.557 60.4811V132.16ZM22.0311 70.1363V132.16H32.9502V60.4811L22.0311 70.1363Z" fill="white"/>
</mask>
<g mask="url(#mask0_327_240)">
<rect width="289.577" height="409.427" rx="6" transform="matrix(1 0 0 -1 -43.6028 255.418)" fill="#20A582"/>
</g>
<path d="M2.65133 160.666H6.53421V188.378H2.65133V160.666ZM11.1027 160.666H14.9447V188.378H11.1027V160.666ZM21.8521 160.666H25.9803L20.3807 174.358L26.3481 188.378H22.0565L16.2935 174.44L21.8521 160.666ZM40.6225 188.378L39.1102 181.021H32.2436L30.7314 188.378H26.9711L33.0202 160.666H38.4154L44.3828 188.378H40.6225ZM32.8976 177.71H38.4154L35.6361 164.263L32.8976 177.71ZM58.9794 160.666H62.7805V188.378H58.6932C54.4153 177.451 51.6223 170.203 50.3144 166.634C50.3144 166.933 50.3689 167.56 50.4779 168.514C50.6959 170.884 50.8049 173.514 50.8049 176.402V188.378H47.0446V160.666H51.1727C54.9602 170.258 57.2627 176.198 58.0802 178.487C58.8976 180.775 59.3608 182.07 59.4698 182.369C59.4698 182.124 59.3881 180.925 59.2246 178.773C59.0884 176.593 59.0066 174.495 58.9794 172.478V160.666ZM84.9851 167.206C84.9851 165.108 83.8952 164.059 81.7153 164.059H78.4864V175.953H81.7153C83.8952 175.953 84.9851 174.89 84.9851 172.764V167.206ZM74.6444 160.666H82.0832C84.263 160.666 85.9252 161.211 87.0696 162.301C88.2413 163.391 88.8271 164.917 88.8271 166.879V173.091C88.8271 175.053 88.2413 176.579 87.0696 177.669C85.9252 178.759 84.263 179.304 82.0832 179.304H78.4864V188.378H74.6444V160.666ZM104.164 188.378L102.652 181.021H95.7853L94.2731 188.378H90.5128L96.5619 160.666H101.957L107.924 188.378H104.164ZM96.4393 177.71H101.957L99.1778 164.263L96.4393 177.71ZM114.428 177.587V188.378H110.586V160.666H118.025C120.205 160.666 121.867 161.211 123.012 162.301C124.183 163.391 124.769 164.903 124.769 166.838V171.252C124.769 174.277 123.611 176.225 121.295 177.097L125.709 188.378H121.458L117.494 177.587H114.428ZM114.428 164.018V174.358H117.698C118.843 174.358 119.66 174.1 120.15 173.582C120.668 173.064 120.927 172.274 120.927 171.211V167.083C120.927 165.04 119.851 164.018 117.698 164.018H114.428ZM129.096 160.666H132.938V188.378H129.096V160.666ZM139.846 160.666H143.974L138.374 174.358L144.342 188.378H140.05L134.287 174.44L139.846 160.666Z" fill="black"/>
</svg>
